<?xml version="1.0" encoding="iso-8859-1"?>
<!-- Generator: Adobe Illustrator 19.0.0, SVG Export Plug-In . SVG Version: 6.00 Build 0)  -->
<svg version="1.1" id="Layer_1" xmlns="http://www.w3.org/2000/svg" xmlns:xlink="http://www.w3.org/1999/xlink" x="0px" y="0px"
	 viewBox="0 0 512 512" style="enable-background:new 0 0 512 512;" xml:space="preserve">
<g>
	<g>
		<path d="M432.01,19.744h-89.936V18.51c0-10.223-8.288-18.51-18.51-18.51H188.437c-10.223,0-18.51,8.288-18.51,18.51v1.234H79.99
			c-10.223,0-18.511,8.288-18.511,18.51V493.49c0,10.223,8.288,18.51,18.511,18.51h352.02c10.223,0,18.51-8.288,18.51-18.51V38.255
			C450.52,28.032,442.233,19.744,432.01,19.744z M206.947,38.255v-1.234h98.106v1.234v43.191h-98.106V38.255z M370.312,339.545
			h-73.737c-10.223,0-18.51,8.288-18.51,18.51v73.737H141.688V99.952h28.238v0.005c0,10.223,8.288,18.51,18.51,18.51h135.127
			c10.223,0,18.51-8.288,18.51-18.51v-0.005h28.238V339.545z"/>
	</g>
</g>
<g>
</g>
<g>
</g>
<g>
</g>
<g>
</g>
<g>
</g>
<g>
</g>
<g>
</g>
<g>
</g>
<g>
</g>
<g>
</g>
<g>
</g>
<g>
</g>
<g>
</g>
<g>
</g>
<g>
</g>
</svg>
