<?xml version="1.0" encoding="iso-8859-1"?>
<!-- Generator: Adobe Illustrator 19.0.0, SVG Export Plug-In . SVG Version: 6.00 Build 0)  -->
<svg version="1.1" id="Layer_1" xmlns="http://www.w3.org/2000/svg" xmlns:xlink="http://www.w3.org/1999/xlink" x="0px" y="0px"
	 viewBox="0 0 512.01 512.01" style="enable-background:new 0 0 512.01 512.01;" xml:space="preserve">
<g>
	<g>
		<path d="M477.765,373.495c-5.141-7.527-17.466-19.802-39.834-20.289c-17.809,4.379-36.815,11.154-54.572,21.35
			c-22.308,12.805-39.21,29.108-51.014,48.507c-0.171,0.547-0.282,0.915-0.282,0.915c-1.24,6.458-1.018,12.471,0.154,17.74
			c6.398,28.62,41.536,48.242,70.362,48.619c3.37,0.043,6.518-1.617,8.4-4.422c1.873-2.797,2.198-6.355,0.872-9.452l-17.415-40.629
			l38.457-19.228l16.945,39.552c1.257,2.934,3.849,5.081,6.963,5.782c3.114,0.701,6.372-0.128,8.767-2.241
			C489.287,438.904,494.949,398.548,477.765,373.495z"/>
	</g>
</g>
<g>
	<g>
		<path d="M405.659,334.089c-44.932-30.955-86.75-64.066-124.472-98.306l78.111-78.111c1.839-1.839,1.839-4.824,0-6.663
			l-19.99-19.99c-1.839-1.839-4.824-1.839-6.663,0l-78.915,78.915c-30.647-29.938-58.079-60.525-81.464-91.147
			c-2.027-2.652-5.885-2.523-7.861,0.163c-4.362,5.936-9.169,11.59-14.481,16.902c-10.35,10.35-22.402,19.511-36.105,27.371
			c-8.793,5.055-18.005,9.358-27.354,13.027c-3.764,1.48-4.337,6.518-0.975,8.785c34.924,23.539,66.812,47.019,95.911,70.567
			L56.074,380.928L10.86,399.755c-1.745,1.163-3.045,2.874-3.712,4.858l-6.663,19.99c-1.129,3.387-0.248,7.117,2.275,9.64
			l53.314,53.314c2.523,2.523,6.261,3.404,9.64,2.275l19.99-6.663c1.984-0.659,3.695-1.967,4.858-3.712l18.809-45.223
			l129.031-129.031c31.511,29.655,58.72,59.516,81.764,89.804c1.959,2.575,5.714,2.566,7.775,0.068
			c2.942-3.593,6.056-7.074,9.392-10.401c10.358-10.35,22.41-19.519,36.113-27.38c9.965-5.722,20.469-10.512,31.092-14.49
			C408.336,341.385,408.994,336.39,405.659,334.089z"/>
	</g>
</g>
<g>
	<g>
		<path d="M155.509,77.105c-6.39-28.62-41.536-48.242-70.362-48.619c-3.353-0.051-6.501,1.617-8.383,4.422
			c-1.873,2.797-2.198,6.355-0.881,9.452l17.415,40.63l-38.457,19.228l-16.945-39.56c-1.266-2.925-3.849-5.081-6.963-5.782
			c-3.114-0.701-6.372,0.128-8.767,2.241C-1.552,79.911-7.214,120.266,9.97,145.32c5.671,8.271,18.749,22.701,45.642,20.4
			c15.952-4.379,32.615-10.735,48.285-19.742c22.804-13.096,39.988-29.826,51.8-49.799c-0.094-0.137-0.205-0.282-0.308-0.419
			C155.56,95.213,156.681,82.374,155.509,77.105z"/>
	</g>
</g>
<g>
	<g>
		<path d="M509.251,141.026l-19.99-19.99c-0.821-0.59-1.634-1.172-2.455-1.771l-25.233-12.617c-5.337-5.611-6.543-9.255-8.04-13.814
			c-1.659-5.021-3.729-11.265-10.914-18.45C383.761,15.528,316.171,5.443,257.194,46.731c-2.481,1.736-3.935,4.645-3.935,7.664
			v26.653c0,3.165,1.702,6.047,4.354,7.801c2.634,1.745,6.099,2.002,9.007,0.761c24.959-10.589,48.619-20.623,78.043-4.414
			l-4.285,12.856c-1.129,3.387-0.248,7.117,2.275,9.648l37.02,37.02c2.352,2.352,5.765,3.285,8.973,2.412
			c9.007-2.429,18.963-0.393,26.285,6.236l12.591,25.182c0.59,0.821,1.172,1.634,1.771,2.455l19.99,19.99
			c3.678,3.678,9.648,3.678,13.326,0l46.651-46.651C512.929,150.674,512.929,144.704,509.251,141.026z"/>
	</g>
</g>
<g>
</g>
<g>
</g>
<g>
</g>
<g>
</g>
<g>
</g>
<g>
</g>
<g>
</g>
<g>
</g>
<g>
</g>
<g>
</g>
<g>
</g>
<g>
</g>
<g>
</g>
<g>
</g>
<g>
</g>
</svg>
