<?xml version="1.0" encoding="iso-8859-1"?>
<!-- Generator: Adobe Illustrator 18.0.0, SVG Export Plug-In . SVG Version: 6.00 Build 0)  -->
<!DOCTYPE svg PUBLIC "-//W3C//DTD SVG 1.1//EN" "http://www.w3.org/Graphics/SVG/1.1/DTD/svg11.dtd">
<svg version="1.1" id="Capa_1" xmlns="http://www.w3.org/2000/svg" xmlns:xlink="http://www.w3.org/1999/xlink" x="0px" y="0px"
	 viewBox="0 0 217.097 217.097" style="enable-background:new 0 0 217.097 217.097;" xml:space="preserve">
<path d="M196.432,206.863V83.755l12.58,8.05l8.085-12.635L109.362,10.234L0,79.143l7.996,12.69l12.625-7.955v122.984H196.432z
	 M35.621,74.555l73.494-46.308l72.317,46.274v117.341H35.621V74.555z M75.499,182.706h66.054v-76.782H75.499V182.706z
	 M90.499,120.924h36.054v46.782H90.499V120.924z M108.526,93.378c12.581,0,22.816-10.235,22.816-22.816
	c0-12.58-10.235-22.816-22.816-22.816c-12.581,0-22.816,10.235-22.816,22.816C85.71,83.143,95.946,93.378,108.526,93.378z
	 M108.526,62.746c4.31,0,7.816,3.506,7.816,7.816s-3.506,7.816-7.816,7.816c-4.31,0-7.816-3.506-7.816-7.816
	S104.217,62.746,108.526,62.746z"/>
<g>
</g>
<g>
</g>
<g>
</g>
<g>
</g>
<g>
</g>
<g>
</g>
<g>
</g>
<g>
</g>
<g>
</g>
<g>
</g>
<g>
</g>
<g>
</g>
<g>
</g>
<g>
</g>
<g>
</g>
</svg>
