<?xml version='1.0' encoding='iso-8859-1'?>
<svg version="1.1" xmlns="http://www.w3.org/2000/svg" viewBox="0 0 32 32" xmlns:xlink="http://www.w3.org/1999/xlink" enable-background="new 0 0 32 32">
  <g>
    <circle cx="16" cy="9" r="2"/>
    <path d="m17,17v-2c0-0.2 0-0.3-0.1-0.5-0.2-0.3-0.5-0.5-0.9-0.5s-0.7,0.2-0.9,0.5c-0.1,0.1-0.1,0.3-0.1,0.5v2c0,1.8-0.5,3.7-0.9,5.5-0.1,0.3-0.1,0.6 0,1 0.2,0.7 0.8,1.3 1.5,1.4 0.1,0 0.3,0 0.4,0s0.3,0 0.4,0c0.7-0.1 1.3-0.7 1.5-1.4 0.1-0.4 0.1-0.7 0-1-0.4-1.8-0.9-3.7-0.9-5.5z"/>
    <path d="m32,16c0-8.8-7.2-16-16-16s-16,7.2-16,16 7.2,16 16,16c5.9,0 8.8,0 10.6-1.3 1.5-1.1 2.2-2.7 4.3-8.9 0.7-1.8 1.1-3.7 1.1-5.8zm-2.3,3c-1.4,4.9-4.2,5.8-6.2,7.2-2.6,1.8-5,3.9-7.5,3.9-7.7,0-14-6.3-14-14s6.3-14 14-14 14,6.3 14,14c0,0.9-0.1,1.9-0.3,2.9z"/>
  </g>
</svg>
