<?xml version="1.0" encoding="iso-8859-1"?>
<!-- Generator: Adobe Illustrator 19.0.0, SVG Export Plug-In . SVG Version: 6.00 Build 0)  -->
<svg version="1.1" id="Layer_1" xmlns="http://www.w3.org/2000/svg" xmlns:xlink="http://www.w3.org/1999/xlink" x="0px" y="0px"
	 viewBox="0 0 512 512" style="enable-background:new 0 0 512 512;" xml:space="preserve">
<g>
	<g>
		<path d="M256,0C114.615,0,0,114.616,0,256s114.615,256,256,256s256-114.616,256-256S397.385,0,256,0z M306.087,439.652H205.913
			V205.913h100.174V439.652z M256,172.522c-27.618,0-50.087-22.469-50.087-50.087c0-27.618,22.469-50.087,50.087-50.087
			c27.618,0,50.087,22.469,50.087,50.087C306.087,150.053,283.618,172.522,256,172.522z"/>
	</g>
</g>
<g>
	<g>
		<rect x="239.304" y="239.304" width="33.391" height="166.956"/>
	</g>
</g>
<g>
	<g>
		<path d="M256,105.739c-9.206,0-16.696,7.49-16.696,16.696c0,9.206,7.49,16.696,16.696,16.696c9.206,0,16.696-7.49,16.696-16.696
			C272.696,113.229,265.206,105.739,256,105.739z"/>
	</g>
</g>
<g>
</g>
<g>
</g>
<g>
</g>
<g>
</g>
<g>
</g>
<g>
</g>
<g>
</g>
<g>
</g>
<g>
</g>
<g>
</g>
<g>
</g>
<g>
</g>
<g>
</g>
<g>
</g>
<g>
</g>
</svg>
