<?xml version="1.0" encoding="iso-8859-1"?>
<!-- Generator: Adobe Illustrator 16.0.0, SVG Export Plug-In . SVG Version: 6.00 Build 0)  -->
<!DOCTYPE svg PUBLIC "-//W3C//DTD SVG 1.1//EN" "http://www.w3.org/Graphics/SVG/1.1/DTD/svg11.dtd">
<svg xmlns="http://www.w3.org/2000/svg" xmlns:xlink="http://www.w3.org/1999/xlink" version="1.1" id="Capa_1" x="0px" y="0px" width="512px" height="512px" viewBox="0 0 187.357 187.358" style="enable-background:new 0 0 187.357 187.358;" xml:space="preserve">
<g>
	<g>
		<path d="M169.337,125.245c-1.339-1.922-3.297-2.818-5.631-2.291c-0.163,0.037-0.326,0.074-0.49,0.11    c-1.649,0.373-2.944,1.823-3.4,3.399c-0.118,0.41-0.237,0.82-0.355,1.229c-0.476,1.641,0.08,3.169,1.11,4.249    c-0.107,0.468-0.068,1.813,0.063,4.761c0.185,4.141,0.107,8.301,0.092,12.443c-0.031,8.146-0.282,16.292-0.414,24.438    c0.021-1.27-37.562,1.66-42.177,1.813c-17.276,0.576-34.592-0.354-51.812-1.663c-15.845-1.205-31.602-3.386-47.263-6.035    c-14.206-2.404-7.375-28.556-7.167-40.091c0.634-35.291,0.844-70.561,2.914-105.8c12.552,0.528,26.357,2.204,37.046-4.057    c1.55-0.908,1.55-3.222,0-4.13C39.524,6.4,23.045,9.741,9.131,9.696c-3.439-0.011-5.761,2.742-5.99,5.989    c-3.638,51.514-1.772,103.153-3.14,154.735c-0.06,2.234,1.662,4.725,3.933,5.164c53.336,10.326,109.481,15.556,163.27,5.76    c2.377-0.432,3.988-2.997,4.009-5.264C171.329,162.875,177.255,136.609,169.337,125.245z" fill="#464747"/>
		<path d="M187.343,11.913c0.161-2.533-2.217-4.573-4.606-4.605c-32.204-0.45-64.083-6.584-96.323-5.682    c-0.32-0.185-0.645-0.395-0.965-0.578c-1.172-0.669-2.227,0.166-2.416,1.17c-1.77,1.34-1.245,4.682,1.58,4.87    c1.321,0.088,2.637,0.222,3.957,0.324c7.849,5.941,14.46,12.756,21.282,20.048c-0.043,0.046-0.089,0.077-0.131,0.126    C97.468,41.958,84.736,55.187,70.998,68.117c-1.449,1.363-1.082,3.268,0.031,4.46c-0.645,0.823-0.876,1.943-0.191,3.041    c4.348,6.976,8.944,13.967,14,20.45c3.17,4.065,9.508,13.371,15.689,11.274c0.606-0.204,1.173-0.654,1.612-1.195    c-0.051,2.496,3.58,4.706,5.491,2.375c12.114-14.771,27.417-26.203,41.055-39.438c3.745,3.991,7.571,7.904,11.427,11.789    c3.985,4.016,8.072,9.099,13.059,11.862c3.062,1.696,6.505-1.067,5.962-4.148C191.476,66.68,185.818,35.934,187.343,11.913z     M102.783,104.424c0.001-0.289,0.015-0.576-0.106-0.866c-0.983-2.351-2.214-3.164-4.361-4.499    c-3.247-2.02-5.884-5.263-8.323-8.146c-4.976-5.882-8.956-12.645-14.261-18.243c2.759-1.744,5.401-3.69,7.992-5.714    c1.146,5.649,4.072,10.724,7.716,15.215c4.494,5.538,10.095,11.986,16.509,15.654C106.171,99.974,104.435,102.161,102.783,104.424    z M111.28,93.939c-4.554-4.051-9.68-7.415-14.03-11.791c-4.841-4.867-8.876-10.595-11.082-17.121    c1.588-1.311,3.09-2.746,4.623-4.136c3.753,5.47,7.845,10.66,12.303,15.596c3.715,4.112,7.904,9.268,12.783,12.53    C114.336,90.65,112.766,92.256,111.28,93.939z M119.699,84.976c-3.365-3.767-7.955-6.858-11.521-10.208    c-5.34-5.014-10.288-10.432-14.733-16.253c2.69-2.555,5.283-5.223,7.835-7.925c4.356,4.411,8.913,8.616,13.645,12.624    c4.601,3.898,9.909,9.139,15.733,11.079C126.966,77.817,123.278,81.347,119.699,84.976z M133.748,71.308    c-0.09-0.216-0.2-0.427-0.354-0.618c-4.129-5.189-11.237-8.688-16.451-12.798c-4.309-3.397-8.398-7.046-12.468-10.719    c2.378-2.602,4.627-5.222,6.92-7.843c5.581,4.813,11.43,9.301,17.065,14.053c4.082,3.442,7.465,8.287,11.385,12.06    C137.813,67.399,135.792,69.362,133.748,71.308z M173.028,80.867c-2.358-2.051-4.929-3.921-7.145-5.767    c-5.675-4.726-11.374-9.441-16.925-14.314c-1.46-1.283-3.154-0.877-4.142,0.182c-3.268-4.504-8.807-8.193-12.677-11.268    c-5.87-4.664-12.02-8.968-18.033-13.447c0.656-0.756,1.356-1.521,2.006-2.273c1.902-2.201,1.244-4.914-0.361-6.517    c1.212-1.402,1.601-3.48-0.123-5.053c-5.66-5.164-12.148-9.948-18.791-14.319c2.006,0.192,4.009,0.415,6.013,0.627    c0.106,0.415,0.301,0.83,0.727,1.211c12.153,10.906,24.715,21.305,36.623,32.489c11.644,10.933,21.771,24.125,33.768,34.526    C173.656,78.253,173.401,79.568,173.028,80.867z M127.177,17.118c10.462,5.395,19.679,11.928,28.378,19.882    c7.271,6.648,12.457,16.619,20.313,22.266c0.247,0.177,0.51,0.271,0.774,0.323c-0.258,2.999-0.57,5.988-1.024,8.956    c-7.245-10.443-17.708-19.298-26.836-27.696c-11.907-10.958-24.725-21.125-37.439-31.188c22.156,2.589,44.241,5.876,66.543,6.666    c-0.314,6.928-0.337,13.901-0.404,20.869c-2.961-2.918-6.363-5.543-9.257-7.99c-5.776-4.882-11.897-9.568-18.392-13.452    c-2.399-1.435-4.228,2.045-2.127,3.639c5.752,4.362,11.498,8.618,16.812,13.519c4.451,4.105,8.207,9.385,12.797,13.346    c-0.049,1.916-0.087,3.832-0.175,5.743c-4.376-7.087-12.603-13.275-18.269-18.32c-8.952-7.972-18.993-15.642-30.42-19.592    C126.674,13.474,125.515,16.261,127.177,17.118z" fill="#464747"/>
	</g>
</g>
<g>
</g>
<g>
</g>
<g>
</g>
<g>
</g>
<g>
</g>
<g>
</g>
<g>
</g>
<g>
</g>
<g>
</g>
<g>
</g>
<g>
</g>
<g>
</g>
<g>
</g>
<g>
</g>
<g>
</g>
</svg>
