<?xml version="1.0" encoding="iso-8859-1"?>
<!-- Generator: Adobe Illustrator 19.0.0, SVG Export Plug-In . SVG Version: 6.00 Build 0)  -->
<svg version="1.1" id="Layer_1" xmlns="http://www.w3.org/2000/svg" xmlns:xlink="http://www.w3.org/1999/xlink" x="0px" y="0px"
	 viewBox="0 0 512 512" style="enable-background:new 0 0 512 512;" xml:space="preserve">
<g>
	<g>
		<path d="M426.667,469.333V0H0v469.333C0,492.898,19.102,512,42.667,512h426.667C445.77,512,426.667,492.897,426.667,469.333z
			 M64,64h128v42.667H64V64z M64,149.333h128V192H64V149.333z M64,234.667h128v42.667H64V234.667z M362.667,448H64v-42.667h298.667
			V448z M362.667,362.667H64V320h298.667V362.667z M362.667,277.333h-128V64h128V277.333z"/>
	</g>
</g>
<g>
	<g>
		<path d="M469.333,71.111v398.222h40.229c1.573-4.449,2.438-9.235,2.438-14.222v-384H469.333z"/>
	</g>
</g>
<g>
</g>
<g>
</g>
<g>
</g>
<g>
</g>
<g>
</g>
<g>
</g>
<g>
</g>
<g>
</g>
<g>
</g>
<g>
</g>
<g>
</g>
<g>
</g>
<g>
</g>
<g>
</g>
<g>
</g>
</svg>
