<?xml version="1.0" encoding="iso-8859-1"?>
<!-- Generator: Adobe Illustrator 18.0.0, SVG Export Plug-In . SVG Version: 6.00 Build 0)  -->
<!DOCTYPE svg PUBLIC "-//W3C//DTD SVG 1.1//EN" "http://www.w3.org/Graphics/SVG/1.1/DTD/svg11.dtd">
<svg version="1.1" id="Capa_1" xmlns="http://www.w3.org/2000/svg" xmlns:xlink="http://www.w3.org/1999/xlink" x="0px" y="0px"
	 viewBox="0 0 222.95 222.95" style="enable-background:new 0 0 222.95 222.95;" xml:space="preserve">
<path d="M209.991,122h-71.136l-27.38,46.153L84.095,122H12.959V0h197.032V122z M91.475,202.95c0,11.046,8.954,20,20,20
	c11.046,0,20-8.954,20-20s-8.954-20-20-20C100.429,182.95,91.475,191.904,91.475,202.95z M30.725,202.95c0,11.046,8.954,20,20,20
	c11.046,0,20-8.954,20-20s-8.954-20-20-20C39.679,182.95,30.725,191.904,30.725,202.95z M152.225,202.95c0,11.046,8.954,20,20,20
	c11.046,0,20-8.954,20-20s-8.954-20-20-20C161.179,182.95,152.225,191.904,152.225,202.95z"/>
<g>
</g>
<g>
</g>
<g>
</g>
<g>
</g>
<g>
</g>
<g>
</g>
<g>
</g>
<g>
</g>
<g>
</g>
<g>
</g>
<g>
</g>
<g>
</g>
<g>
</g>
<g>
</g>
<g>
</g>
</svg>
