<?xml version="1.0" encoding="iso-8859-1"?>
<!-- Generator: Adobe Illustrator 16.0.0, SVG Export Plug-In . SVG Version: 6.00 Build 0)  -->
<!DOCTYPE svg PUBLIC "-//W3C//DTD SVG 1.1//EN" "http://www.w3.org/Graphics/SVG/1.1/DTD/svg11.dtd">
<svg version="1.1" id="Capa_1" xmlns="http://www.w3.org/2000/svg" xmlns:xlink="http://www.w3.org/1999/xlink" x="0px" y="0px"
	 width="620.628px" height="620.628px" viewBox="0 0 620.628 620.628" style="enable-background:new 0 0 620.628 620.628;"
	 xml:space="preserve">
<g>
	<g>
		<defs>
			<rect id="SVGID_1_" y="25.182" width="620.628" height="570.265"/>
		</defs>
		<clipPath id="SVGID_2_">
			<use xlink:href="#SVGID_1_"  style="overflow:visible;"/>
		</clipPath>
		<path style="clip-path:url(#SVGID_2_);fill:#27241F;" d="M500.077,191.289c-17.919,0-255.353,0-255.353,0
			s-13.596-1.896-13.188-13.198c0.194-6.366,3.717-13.155,13.188-13.155h255.921c0,0,17.985-1.437,17.768,13.165
			C518.413,183.472,517.996,191.289,500.077,191.289L500.077,191.289z M500.077,257.742c-17.919,0-255.353,0-255.353,0
			s-13.596-1.882-13.188-13.193c0.194-6.371,3.717-13.165,13.188-13.165h255.921c0,0,17.985-1.437,17.768,13.184
			C518.413,249.915,517.996,257.742,500.077,257.742L500.077,257.742z M497.877,324.488c-17.899,0-255.371,0-255.371,0
			s-13.577-1.877-13.179-13.193c0.223-6.372,3.726-13.165,13.179-13.165h255.94c0,0,17.976-1.437,17.768,13.183
			C516.214,316.676,515.815,324.488,497.877,324.488L497.877,324.488z M497.877,388.75c-17.899,0-255.371,0-255.371,0
			s-13.577-1.896-13.179-13.178c0.223-6.372,3.726-13.179,13.179-13.179h255.94c0,0,17.976-1.441,17.768,13.179
			C516.214,380.919,515.815,388.75,497.877,388.75L497.877,388.75z M497.877,455.743c-17.899,0-255.371,0-255.371,0
			s-13.577-1.849-13.179-13.179c0.223-6.371,3.726-13.159,13.179-13.159h255.94c0,0,17.976-1.432,17.768,13.169
			C516.214,447.931,515.815,455.743,497.877,455.743L497.877,455.743z M577.65,25.182H170.26c-23.788,0-42.982,19.341-42.982,42.991
			v38.337h0.242v346.939c0,0,2.484,19.047-6.912,39.46c-0.981,2.199-2.186,4.438-3.494,6.675c-0.156,0.246-0.232,0.493-0.398,0.739
			c-0.038,0.038-0.071,0.038-0.128,0.066c-5.784,9.452-14.814,18.535-29.164,24.148c10.173-22.783,10.33-41.262,10.33-68.055
			c-0.157-19.778-0.157-215.808-0.157-318.127c-13.027-0.147-28.505-0.147-45.841-0.284C9.32,137.849,1.398,173.308,0,189.734
			v307.802c0,0,0.194,15.938,3.096,27.362c3.963,13.861,10.624,27.248,20.574,41.773c15.748,23.124,45.627,27.912,53.027,28.774
			h508.226c4.513-0.237,9.965-1.015,14.316-3.081c12.762-7.424,21.389-21.143,21.389-37.005V68.173
			C620.638,44.522,601.43,25.182,577.65,25.182L577.65,25.182z"/>
	</g>
</g>
<g>
</g>
<g>
</g>
<g>
</g>
<g>
</g>
<g>
</g>
<g>
</g>
<g>
</g>
<g>
</g>
<g>
</g>
<g>
</g>
<g>
</g>
<g>
</g>
<g>
</g>
<g>
</g>
<g>
</g>
</svg>
