<?xml version="1.0" encoding="iso-8859-1"?>
<!-- Generator: Adobe Illustrator 19.0.0, SVG Export Plug-In . SVG Version: 6.00 Build 0)  -->
<svg version="1.1" id="Layer_1" xmlns="http://www.w3.org/2000/svg" xmlns:xlink="http://www.w3.org/1999/xlink" x="0px" y="0px"
	 viewBox="0 0 491.52 491.52" style="enable-background:new 0 0 491.52 491.52;" xml:space="preserve">
<g>
	<g>
		<path d="M471.04,450.56v-307.2c0-11.305-9.155-20.48-20.48-20.48H409.6V61.44h40.96c11.325,0,20.48-9.175,20.48-20.48
			c0-11.305-9.155-20.48-20.48-20.48H409.6C409.6,9.175,400.445,0,389.12,0s-20.48,9.175-20.48,20.48v102.4h-40.96V102.4
			c0-4.424-1.434-8.745-4.096-12.288l-61.44-81.92c-7.721-10.322-25.047-10.322-32.768,0l-61.44,81.92
			c-2.662,3.543-4.096,7.864-4.096,12.288v20.48H102.4V61.44h40.96c11.325,0,20.48-9.175,20.48-20.48
			c0-11.305-9.155-20.48-20.48-20.48H102.4C102.4,9.175,93.245,0,81.92,0C70.595,0,61.44,9.175,61.44,20.48v102.4H40.96
			c-11.325,0-20.48,9.175-20.48,20.48v307.2C9.155,450.56,0,459.735,0,471.04c0,11.305,9.155,20.48,20.48,20.48h15.544
			c0.881,0,1.618-0.389,2.458-0.492c0.86,0.102,1.597,0.492,2.478,0.492h143.36V409.6c0-33.874,27.566-61.44,61.44-61.44
			s61.44,27.566,61.44,61.44v81.92h143.36c0.881,0,1.618-0.389,2.478-0.492c0.84,0.102,1.577,0.492,2.458,0.492h15.544
			c11.325,0,20.48-9.175,20.48-20.48C491.52,459.735,482.365,450.56,471.04,450.56z M225.28,286.72
			c0,11.305-9.155,20.48-20.48,20.48h-81.92c-11.325,0-20.48-9.175-20.48-20.48V204.8c0-11.305,9.155-20.48,20.48-20.48h81.92
			c11.326,0,20.48,9.175,20.48,20.48V286.72z M389.12,286.72c0,11.305-9.155,20.48-20.48,20.48h-81.92
			c-11.326,0-20.48-9.175-20.48-20.48V204.8c0-11.305,9.155-20.48,20.48-20.48h81.92c11.325,0,20.48,9.175,20.48,20.48V286.72z"/>
	</g>
</g>
<g>
</g>
<g>
</g>
<g>
</g>
<g>
</g>
<g>
</g>
<g>
</g>
<g>
</g>
<g>
</g>
<g>
</g>
<g>
</g>
<g>
</g>
<g>
</g>
<g>
</g>
<g>
</g>
<g>
</g>
</svg>
