<?xml version="1.0" encoding="iso-8859-1"?>
<!-- Generator: Adobe Illustrator 19.0.0, SVG Export Plug-In . SVG Version: 6.00 Build 0)  -->
<svg version="1.1" id="Layer_1" xmlns="http://www.w3.org/2000/svg" xmlns:xlink="http://www.w3.org/1999/xlink" x="0px" y="0px"
	 viewBox="0 0 512.002 512.002" style="enable-background:new 0 0 512.002 512.002;" xml:space="preserve">
<g>
	<g>
		<g>
			<path d="M0.001,481.835l176.917-176.917c8.341-8.341,21.824-8.341,30.165,0l48.917,48.917l112.917-112.917
				c8.341-8.341,21.824-8.341,30.165,0l112.917,112.917V170.667h-512V481.835z M128.001,213.333
				c23.573,0,42.667,19.093,42.667,42.667s-19.093,42.667-42.667,42.667c-23.573,0-42.667-19.093-42.667-42.667
				S104.428,213.333,128.001,213.333z"/>
			<path d="M286.166,384.002l6.251,6.251c8.341,8.341,8.341,21.824,0,30.165c-8.341,8.341-21.824,8.341-30.165,0l-70.251-70.251
				L30.166,512.002h460.501c11.797,0,21.333-9.557,21.333-21.333v-76.501l-128-128L286.166,384.002z"/>
			<path d="M490.668,0H21.334C9.537,0,0.001,9.557,0.001,21.333V128h512V21.333C512.001,9.557,502.465,0,490.668,0z M85.334,106.667
				c-11.776,0-21.333-9.557-21.333-21.333S73.558,64,85.334,64s21.333,9.557,21.333,21.333S97.11,106.667,85.334,106.667z
				 M149.334,106.667c-11.776,0-21.333-9.557-21.333-21.333S137.558,64,149.334,64s21.333,9.557,21.333,21.333
				S161.11,106.667,149.334,106.667z M213.334,106.667c-11.776,0-21.333-9.557-21.333-21.333S201.558,64,213.334,64
				s21.333,9.557,21.333,21.333S225.11,106.667,213.334,106.667z"/>
		</g>
	</g>
</g>
<g>
</g>
<g>
</g>
<g>
</g>
<g>
</g>
<g>
</g>
<g>
</g>
<g>
</g>
<g>
</g>
<g>
</g>
<g>
</g>
<g>
</g>
<g>
</g>
<g>
</g>
<g>
</g>
<g>
</g>
</svg>
