<?xml version="1.0" encoding="iso-8859-1"?>
<!-- Generator: Adobe Illustrator 16.0.0, SVG Export Plug-In . SVG Version: 6.00 Build 0)  -->
<!DOCTYPE svg PUBLIC "-//W3C//DTD SVG 1.1//EN" "http://www.w3.org/Graphics/SVG/1.1/DTD/svg11.dtd">
<svg version="1.1" id="Capa_1" xmlns="http://www.w3.org/2000/svg" xmlns:xlink="http://www.w3.org/1999/xlink" x="0px" y="0px"
	 width="97.785px" height="97.785px" viewBox="0 0 97.785 97.785" style="enable-background:new 0 0 97.785 97.785;"
	 xml:space="preserve">
<g>
	<g>
		<path d="M77.457,14.56c-0.713-0.062-1.363-0.424-1.791-0.998c-3.877-5.219-10.082-8.435-16.68-8.435
			c-0.406,0-0.812,0.013-1.218,0.036c-0.591,0.035-1.173-0.141-1.646-0.498C52.101,1.64,47.235,0,42.135,0
			c-9.134,0-17.243,5.284-21.047,13.289c-0.36,0.757-1.075,1.282-1.903,1.4C9.121,16.124,1.357,24.799,1.357,35.252
			c0,8.424,5.051,15.679,12.276,18.933c-0.004-0.304-0.02-0.596-0.02-0.903c0-3.328,0.222-6.017,0.67-8.204
			c-2.886-2.307-4.744-5.852-4.744-9.827c0-6.94,5.647-12.586,12.587-12.586c0.351,0,0.696,0.028,1.038,0.057
			c2,0.154,3.812-1.143,4.298-3.083c1.692-6.745,7.727-11.455,14.672-11.455c3.968,0,7.724,1.533,10.576,4.315
			c0.976,0.95,2.357,1.354,3.691,1.077c0.848-0.177,1.719-0.267,2.582-0.267c4.858,0,9.196,2.732,11.323,7.129
			c0.747,1.546,2.381,2.466,4.091,2.29c0.426-0.043,0.85-0.063,1.262-0.063c6.939,0,12.588,5.646,12.588,12.586
			c0,3.975-1.857,7.519-4.744,9.827c0.447,2.186,0.669,4.875,0.669,8.203c0,0.309-0.017,0.601-0.021,0.903
			c7.227-3.254,12.276-10.507,12.276-18.933C96.431,24.405,88.072,15.473,77.457,14.56z"/>
		<path d="M48.896,30.221C28.365,49.168,17.704,29.46,17.704,53.281c0,33.218,23.983,43.242,31.191,44.504
			c7.204-1.26,31.188-11.286,31.188-44.504C80.083,29.461,69.425,49.168,48.896,30.221z M66.111,60.734L48.15,78.693
			c-0.951,0.953-2.199,1.43-3.446,1.43c-1.248,0-2.495-0.477-3.447-1.43l-9.58-9.578c-1.903-1.904-1.903-4.989,0-6.895
			c1.901-1.902,4.99-1.902,6.892,0l6.135,6.135L59.22,53.841c1.9-1.904,4.99-1.904,6.893,0
			C68.016,55.742,68.016,58.828,66.111,60.734z"/>
	</g>
</g>
<g>
</g>
<g>
</g>
<g>
</g>
<g>
</g>
<g>
</g>
<g>
</g>
<g>
</g>
<g>
</g>
<g>
</g>
<g>
</g>
<g>
</g>
<g>
</g>
<g>
</g>
<g>
</g>
<g>
</g>
</svg>
