<?xml version="1.0" encoding="iso-8859-1"?>
<!-- Generator: Adobe Illustrator 19.0.0, SVG Export Plug-In . SVG Version: 6.00 Build 0)  -->
<svg xmlns="http://www.w3.org/2000/svg" xmlns:xlink="http://www.w3.org/1999/xlink" version="1.1" id="Capa_1" x="0px" y="0px" viewBox="0 0 360 360" style="enable-background:new 0 0 360 360;" xml:space="preserve" width="512px" height="512px">
<g id="XMLID_245_">
	<path id="XMLID_307_" d="M344.078,127.272h-48.155V77.834L212.899,0H15.922v360h280v-50h48.155V127.272z M314.078,280h-210V157.273   h210V280z" fill="#358dcc"/>
	<path id="XMLID_311_" d="M145.28,239.51c2.973,3.202,6.468,5.718,10.486,7.546c4.018,1.83,8.313,2.744,12.887,2.744   c7.382,0,13.851-2.776,19.404-8.33v7.84h11.172v-35.77h-25.186v9.898h14.015v4.9c-5.424,6.338-11.5,9.506-18.229,9.506   c-2.939,0-5.668-0.604-8.183-1.813c-2.516-1.209-4.688-2.857-6.517-4.949c-1.83-2.091-3.269-4.558-4.313-7.399   c-1.046-2.842-1.568-5.896-1.568-9.163c0-3.136,0.474-6.107,1.422-8.918c0.946-2.808,2.286-5.292,4.018-7.447   c1.73-2.156,3.822-3.854,6.272-5.097c2.449-1.24,5.145-1.861,8.085-1.861c3.724,0,7.169,0.915,10.339,2.743   c3.168,1.83,5.635,4.477,7.398,7.938l10.095-7.448c-2.352-4.638-5.865-8.33-10.535-11.074c-4.672-2.744-10.275-4.115-16.808-4.115   c-4.835,0-9.31,0.931-13.426,2.793c-4.116,1.861-7.693,4.378-10.73,7.546c-3.038,3.169-5.424,6.859-7.154,11.073   c-1.732,4.215-2.597,8.707-2.597,13.476c0,5.031,0.864,9.719,2.597,14.063C139.955,232.536,142.307,236.31,145.28,239.51z" fill="#358dcc"/>
	<rect id="XMLID_312_" x="210.793" y="179.73" width="13.523" height="69.58" fill="#358dcc"/>
	<polygon id="XMLID_333_" points="252.344,220.498 279.98,220.498 279.98,209.521 252.344,209.521 252.344,191.588 285.566,191.588    285.566,179.73 238.82,179.73 238.82,249.31 252.344,249.31  " fill="#358dcc"/>
</g>
<g>
</g>
<g>
</g>
<g>
</g>
<g>
</g>
<g>
</g>
<g>
</g>
<g>
</g>
<g>
</g>
<g>
</g>
<g>
</g>
<g>
</g>
<g>
</g>
<g>
</g>
<g>
</g>
<g>
</g>
</svg>
