<?xml version="1.0" encoding="iso-8859-1"?>
<!-- Generator: Adobe Illustrator 18.1.1, SVG Export Plug-In . SVG Version: 6.00 Build 0)  -->
<svg xmlns="http://www.w3.org/2000/svg" xmlns:xlink="http://www.w3.org/1999/xlink" version="1.1" id="Capa_1" x="0px" y="0px" viewBox="0 0 28.544 28.544" style="enable-background:new 0 0 28.544 28.544;" xml:space="preserve" width="512px" height="512px">
<g>
	<path d="M20.178,12.564c0,1.22-0.676,1.856-1.816,1.848c-0.179,0-0.363,0-0.483-0.021v-3.446   c0.127-0.027,0.319-0.049,0.596-0.049C19.573,10.896,20.188,11.511,20.178,12.564z M14.389,10.891   c-0.241,0-0.412,0.021-0.505,0.041v1.611c0.114,0.035,0.248,0.043,0.428,0.043c0.654,0,1.054-0.327,1.054-0.884   C15.365,11.167,14.996,10.891,14.389,10.891z M26.201,8.893v7.528H10.698V8.893H26.201z M16.236,11.666   c0-0.45-0.188-0.827-0.472-1.063c-0.306-0.256-0.768-0.392-1.41-0.392c-0.585,0-1.02,0.043-1.341,0.101v4.739h0.87v-1.817   c0.12,0.029,0.264,0.036,0.428,0.036c0.621,0,1.162-0.171,1.519-0.521C16.093,12.492,16.237,12.123,16.236,11.666z M21.106,12.535   c0-0.812-0.284-1.391-0.756-1.768c-0.442-0.371-1.055-0.556-1.954-0.556c-0.517,0-1.003,0.043-1.397,0.101v4.727   c0.292,0.035,0.679,0.063,1.184,0.063c0.935,0,1.697-0.22,2.175-0.656C20.814,14.034,21.107,13.398,21.106,12.535z M22.75,12.294   v-1.326h1.902v-0.72h-2.779v4.804h0.877v-2.045h1.768v-0.713C24.518,12.294,22.75,12.294,22.75,12.294z M21.708,22.61L21.708,22.61   h-4.359v4.007l-0.062,0.053H4.216V1.875h17.491v6.088h1.873V0.938C23.58,0.422,23.161,0,22.644,0H3.279   C2.76,0,2.343,0.422,2.343,0.938v26.669c0,0.519,0.417,0.937,0.936,0.937h14.367c0.231,0,0.453-0.084,0.626-0.239l4.997-4.471   c0.198-0.179,0.312-0.431,0.312-0.698v-5.884h-1.873C21.708,17.252,21.708,22.61,21.708,22.61z" fill="#358dcc"/>
</g>
<g>
</g>
<g>
</g>
<g>
</g>
<g>
</g>
<g>
</g>
<g>
</g>
<g>
</g>
<g>
</g>
<g>
</g>
<g>
</g>
<g>
</g>
<g>
</g>
<g>
</g>
<g>
</g>
<g>
</g>
</svg>
