<?xml version="1.0" encoding="iso-8859-1"?>
<!-- Generator: Adobe Illustrator 16.0.0, SVG Export Plug-In . SVG Version: 6.00 Build 0)  -->
<!DOCTYPE svg PUBLIC "-//W3C//DTD SVG 1.1//EN" "http://www.w3.org/Graphics/SVG/1.1/DTD/svg11.dtd">
<svg xmlns="http://www.w3.org/2000/svg" xmlns:xlink="http://www.w3.org/1999/xlink" version="1.1" id="Capa_1" x="0px" y="0px" width="512px" height="512px" viewBox="0 0 612 612" style="enable-background:new 0 0 612 612;" xml:space="preserve">
<g>
	<g>
		<path d="M539.25,204h-53.429V53.429C485.821,23.975,458.048,0,428.992,0H186.136c-4.42,0-7.568,2.011-10.336,5.459l-1.419,1.778    c-0.097,0.116-0.262,0.185-0.359,0.302L27.627,190.021c-1.127,1.398-1.846,2.992-2.38,4.644l-4.585,5.761    c-2.069,2.574-1.126,5.789-1.126,9.102v349.044c0,29.454,20.157,53.429,50.029,53.429h359.428    c29.056,0,56.829-23.975,56.829-53.429V398.285h53.429c29.512,0,53.429-23.926,53.429-53.428v-87.429    C592.678,227.927,568.762,204,539.25,204z M563.535,344.857c0,13.415-10.87,24.285-24.285,24.285H354.678    c-13.415,0-24.285-10.87-24.285-24.285v-87.429c0-13.416,10.87-24.286,24.285-24.286H539.25c13.415,0,24.285,10.87,24.285,24.286    V344.857z M174.964,58.102v97.521c0,13.794-18.36,28.948-31.299,28.948H72.1l37.915-48.688L174.964,58.102z M456.678,558.571    c0,13.62-14.483,24.286-27.686,24.286H69.564c-13.562,0-20.886-11.123-20.886-24.286V214.646l0.729-0.932h94.258    c28.938,0,60.442-28.23,60.442-58.092V29.143h224.886c13.201,0,27.686,10.666,27.686,24.286V204h-102    c-29.512,0-53.429,23.927-53.429,53.429v87.429c0,29.502,23.917,53.428,53.429,53.428h102L456.678,558.571L456.678,558.571z" fill="#358dcc"/>
		<path d="M412.09,286.348h-44.773c-2.312,0-4.07,0.524-5.284,1.574c-1.225,1.039-1.836,2.467-1.836,4.264    c0,1.729,0.593,3.129,1.758,4.197c1.176,1.059,2.963,1.593,5.362,1.593h15.368v50.505c0,2.885,0.651,5.032,1.972,6.45    c1.312,1.428,3.002,2.147,5.091,2.147c2.06,0,3.74-0.709,5.032-2.128c1.302-1.399,1.942-3.546,1.942-6.47v-50.504h15.368    c2.409,0,4.216-0.535,5.411-1.594c1.204-1.068,1.797-2.467,1.797-4.196c0-1.749-0.583-3.147-1.768-4.226    C416.345,286.892,414.528,286.348,412.09,286.348z" fill="#358dcc"/>
		<path d="M472.901,342.37l-14.756-22.731l13.706-20.487c2.438-3.623,3.653-6.509,3.653-8.636c0-1.438-0.554-2.711-1.671-3.77    c-1.137-1.049-2.574-1.584-4.353-1.584c-0.972,0-1.836,0.156-2.574,0.496c-0.748,0.32-1.418,0.835-2.021,1.496    c-0.602,0.67-1.224,1.506-1.875,2.506c-0.65,1.029-1.428,2.244-2.351,3.662l-11.143,16.894l-10.442-16.894    c-1.924-3.127-3.429-5.274-4.518-6.431c-1.098-1.155-2.622-1.729-4.585-1.729c-1.709,0-3.147,0.535-4.332,1.584    c-1.195,1.059-1.788,2.254-1.788,3.584c0,1.303,0.312,2.652,0.933,4.061c0.612,1.399,1.535,3.09,2.769,5.042l13.095,20.206    l-15.562,22.731c-2.303,3.38-3.459,6.246-3.459,8.577c0,1.991,0.554,3.507,1.681,4.557c1.127,1.039,2.536,1.573,4.245,1.573    c1.107,0,2.079-0.175,2.896-0.534c0.825-0.34,1.534-0.816,2.127-1.418c0.612-0.593,1.127-1.215,1.555-1.846    c0.427-0.642,1.146-1.749,2.146-3.322l12.998-19.827l12.239,19.264c1.555,2.37,2.604,3.963,3.177,4.779    c0.573,0.835,1.321,1.516,2.234,2.069c0.913,0.544,2.04,0.835,3.361,0.835c1.233,0,2.351-0.272,3.322-0.815    c0.99-0.535,1.748-1.254,2.272-2.187c0.544-0.913,0.807-1.913,0.807-3.03c0-1.156-0.292-2.409-0.894-3.721    C475.193,346.013,474.231,344.361,472.901,342.37z" fill="#358dcc"/>
		<path d="M531.479,286.348h-44.773c-2.312,0-4.07,0.524-5.284,1.574c-1.225,1.039-1.836,2.467-1.836,4.264    c0,1.729,0.592,3.129,1.758,4.197c1.176,1.059,2.963,1.593,5.362,1.593h15.368v50.505c0,2.885,0.65,5.032,1.972,6.45    c1.312,1.428,3.002,2.147,5.091,2.147c2.06,0,3.739-0.709,5.032-2.128c1.302-1.399,1.942-3.546,1.942-6.47v-50.504h15.368    c2.409,0,4.216-0.535,5.411-1.594c1.204-1.068,1.797-2.467,1.797-4.196c0-1.749-0.583-3.147-1.769-4.226    C535.733,286.892,533.917,286.348,531.479,286.348z" fill="#358dcc"/>
	</g>
</g>
<g>
</g>
<g>
</g>
<g>
</g>
<g>
</g>
<g>
</g>
<g>
</g>
<g>
</g>
<g>
</g>
<g>
</g>
<g>
</g>
<g>
</g>
<g>
</g>
<g>
</g>
<g>
</g>
<g>
</g>
</svg>
